<?xml version="1.0" encoding="utf-8" ?><svg xmlns="http://www.w3.org/2000/svg" xmlns:xlink="http://www.w3.org/1999/xlink" width="1024" height="1024" viewBox="0 0 1024 1024"><clipPath id="cl_11"><rect width="1024" height="1024"/></clipPath><g clip-path="url(#cl_11)"><path fill="#5119DC" transform="translate(0.0883789 0.181152)" d="M669.691 278.164L669.976 278.422C670.701 279.994 670.466 373.653 670.37 411.838L670.366 413.473C670.349 420.18 670.337 424.945 670.338 426.855C665.663 431.704 658.533 437.809 653.437 442.469L625.312 468.194L625.445 554.947L670.327 597.557C670.317 613.76 670.388 630.123 670.46 646.534L670.461 646.664L670.464 647.406L670.465 647.573L670.468 648.348L670.469 648.515L670.469 648.642L670.469 648.675C670.618 681.884 670.768 715.278 670.282 747.956L595.585 680.17C572.036 658.305 548.128 636.829 523.872 615.75C523.394 607.271 523.491 596.06 523.58 585.813C523.617 581.555 523.652 577.464 523.644 573.804C529.324 578.265 534.944 583.599 540.393 588.414C550.857 597.801 561.467 607.023 572.221 616.077L572.213 371.781C593.292 351.028 614.559 330.468 636.013 310.103C646.928 299.717 658.607 288.124 669.691 278.164Z"/><path fill="#5119DC" transform="translate(0.0883789 0.181152)" d="M385.535 276.044C389.008 278.656 395.73 285.166 399.262 288.459L426.707 314.483L523.938 408.111C523.455 423.463 523.633 440.665 523.802 456.964C523.853 461.951 523.904 466.853 523.935 471.592C516.472 466.162 509.725 459.939 502.536 454.193C486.255 441.18 470.894 426.698 454.676 413.658C454.028 431.572 454.222 451.413 454.411 470.658L454.412 470.736L454.413 470.809L454.414 470.877C454.498 479.288 454.58 487.583 454.591 495.552L454.489 647.4C454.559 655.198 454.559 662.997 454.489 670.795C442.147 683.357 428.724 695.878 415.93 708.036C405.848 717.787 395.693 727.46 385.464 737.056L385.532 638.997C385.526 634.238 385.489 629.344 385.451 624.395C385.357 612.09 385.261 599.443 385.636 587.69C394.691 578.51 404.251 569.723 413.525 560.761C415.982 558.387 418.75 556.074 420.794 553.35L420.769 482.157C410.772 471.783 396.51 459.669 385.722 449.007C385.394 443.649 385.455 437.267 385.512 431.261L385.512 431.24L385.512 431.172C385.534 428.869 385.555 426.621 385.554 424.51L385.53 381.172C385.527 369.999 385.457 358.594 385.386 347.115L385.386 347.091L385.386 347.085C385.24 323.256 385.092 299.106 385.535 276.044Z"/><path fill="#5119DC" transform="translate(0.0883789 0.181152)" d="M645.781 514.359C696.878 513.942 750.093 513.893 801.195 514.426C801.202 514.817 801.215 515.303 801.229 515.858C801.329 519.772 801.517 527.137 800.682 529.257L799.606 529.517L700.908 529.597C695.365 529.6 689.776 529.572 684.169 529.543L683.959 529.543L683.906 529.543C671.163 529.477 658.333 529.41 645.772 529.727C645.731 524.604 645.734 519.482 645.781 514.359Z"/><path fill="#5119DC" transform="translate(0.0883789 0.181152)" d="M763.289 483.167L763.384 483.168C770.873 483.208 778.332 483.248 785.745 483.282C785.742 484.071 785.752 485.084 785.763 486.216L785.763 486.236L785.763 486.308C785.803 490.294 785.856 495.704 785.427 498.045L784.383 498.521L645.781 498.421C645.756 493.376 645.778 488.331 645.847 483.286C684.33 482.748 724.087 482.959 763.03 483.166L763.289 483.167Z"/><path fill="#FEAB2F" transform="translate(0.0883789 0.181152)" d="M518.149 501.667C529.536 498.976 540.949 506.022 543.647 517.407C546.344 528.792 539.306 540.209 527.922 542.913C516.529 545.62 505.101 538.574 502.401 527.18C499.701 515.785 506.753 504.361 518.149 501.667Z"/><path fill="#5119DC" transform="translate(0.0883789 0.181152)" d="M658.759 545.18L741.242 545.245C741.246 550.201 741.184 555.157 741.056 560.111C734.296 560.402 726.57 560.347 719.245 560.295L719.237 560.295L719.149 560.295L719.083 560.294C716.369 560.274 713.712 560.254 711.181 560.253L658.66 560.225C658.626 556.782 658.668 553.265 658.71 549.772L658.711 549.67C658.729 548.166 658.747 546.667 658.759 545.18Z"/><path fill="#5119DC" transform="translate(0.0883789 0.181152)" d="M670.347 452.948L723.672 452.905C723.704 456.391 723.641 459.962 723.578 463.502L723.575 463.655L723.574 463.693L723.571 463.837C723.546 465.184 723.521 466.525 723.502 467.855L670.338 467.865C670.305 462.892 670.308 457.92 670.347 452.948Z"/><path fill="#5119DC" transform="translate(0.0883789 0.181152)" d="M348.248 544.523C349.745 544.516 351.258 544.506 352.782 544.497L352.939 544.497C362.009 544.441 371.471 544.383 380.323 544.702C380.35 545.317 380.402 546.055 380.46 546.866L380.46 546.871C380.731 550.664 381.117 556.069 379.494 558.092L377.383 558.227L344.123 558.282C344.152 556.876 344.091 555.539 344.031 554.234L344.03 554.216L344.027 554.16L344.026 554.145L344.026 554.131L344.026 554.128C343.893 551.277 343.767 548.584 344.58 545.697C345.598 544.612 345.666 544.611 346.766 544.589C347.126 544.582 347.597 544.573 348.248 544.523Z"/><path fill="#5119DC" transform="translate(0.0883789 0.181152)" d="M344.242 475.027C356.259 474.718 368.282 474.726 380.299 475.053C380.325 479.409 380.319 483.766 380.281 488.122L344.262 488.176C344.249 487.648 344.236 487.121 344.222 486.597L344.222 486.544L344.221 486.532C344.123 482.678 344.026 478.914 344.242 475.027Z"/><path fill="#5119DC" transform="translate(0.0883789 0.181152)" d="M287.43 472.628L311.578 472.743C311.364 476.823 311.454 481.84 311.537 486.442C311.563 487.928 311.589 489.37 311.604 490.724L287.621 490.77C287.435 486.643 287.437 482.029 287.439 477.604L287.439 477.187C287.439 475.631 287.439 474.101 287.43 472.628Z"/><path fill="#5119DC" transform="translate(0.0883789 0.181152)" d="M287.595 525.766L311.46 525.736L311.599 543.145L287.577 543.273C287.448 539.224 287.5 534.748 287.55 530.442C287.568 528.85 287.586 527.282 287.595 525.766Z"/><path fill="#5119DC" transform="translate(0.0883789 0.181152)" d="M362.32 512.747C371.717 512.671 381.114 512.679 390.51 512.772C390.652 516.105 390.644 519.557 390.636 522.949C390.634 523.867 390.632 524.78 390.633 525.685C381.217 525.822 371.8 525.854 362.384 525.782L362.32 512.747Z"/><path fill="#5119DC" transform="translate(0.0883789 0.181152)" d="M322.326 504.968C329.438 505.113 336.65 505.115 343.771 505.179L343.931 520.648C338.463 520.481 332.652 520.59 327.01 520.696C325.423 520.725 323.85 520.755 322.302 520.778L322.326 504.968Z"/><path fill="#5119DC" transform="translate(0.0883789 0.181152)" d="M322.247 433.143C328.527 433.133 334.807 433.164 341.086 433.238C341.175 437.451 341.06 441.738 340.946 445.983L340.945 446.037L340.943 446.093C340.917 447.061 340.891 448.027 340.867 448.989L322.245 449.105L322.247 433.143Z"/><path fill="#5119DC" transform="translate(0.0883789 0.181152)" d="M322.719 575.025C328.805 574.944 334.892 574.985 340.977 575.147C340.979 576.11 340.986 577.104 340.994 578.117C341.024 582.057 341.056 586.273 340.763 589.958L322.23 589.998C322.229 589.542 322.221 588.913 322.211 588.168L322.211 588.163L322.211 588.159C322.161 584.141 322.069 576.77 322.719 575.025Z"/><path fill="#5119DC" transform="translate(0.0883789 0.181152)" d="M240.12 510.759C246.022 510.718 251.923 510.722 257.824 510.772C258.162 515.348 258.166 519.72 258.17 524.256C258.171 524.751 258.171 525.247 258.172 525.746C252.156 525.836 246.14 525.853 240.123 525.797C240.089 520.785 240.088 515.771 240.12 510.759Z"/><path fill="#5119DC" transform="translate(0.0883789 0.181152)" d="M801.143 483.161L816.619 483.295C816.583 486.705 816.598 490.172 816.613 493.622C816.62 495.264 816.627 496.901 816.629 498.527C811.479 498.42 806.327 498.437 801.177 498.578C801.213 493.439 801.202 488.3 801.143 483.161Z"/><path fill="#5119DC" transform="translate(0.0883789 0.181152)" d="M756.488 545.229C761.7 545.121 766.531 545.042 771.755 545.183L771.635 560.17C767.683 560.276 763.645 560.24 759.652 560.204C758.571 560.194 757.494 560.185 756.423 560.178C756.344 556.396 756.395 552.515 756.446 548.68C756.461 547.524 756.476 546.373 756.488 545.229Z"/></g></svg>